<svg width="13" height="13" viewBox="0 0 13 13" fill="currentColor" xmlns="http://www.w3.org/2000/svg">
<g id="arrow-up-right-square">
<path d="M2.54085 12.8848C1.17855 12.8848 0.494141 12.2134 0.494141 10.8641V2.90541C0.494141 1.55614 1.17855 0.884766 2.54085 0.884766H10.4474C11.8162 0.884766 12.4941 1.56266 12.4941 2.90541V10.8641C12.4941 12.2069 11.8162 12.8848 10.4474 12.8848H2.54085ZM2.55389 11.8353H10.4344C11.0797 11.8353 11.4447 11.4899 11.4447 10.812V2.95755C11.4447 2.27966 11.0797 1.9342 10.4344 1.9342H2.55389C1.90207 1.9342 1.54357 2.27966 1.54357 2.95755V10.812C1.54357 11.4899 1.90207 11.8353 2.55389 11.8353ZM8.5376 8.4915C8.25079 8.4915 8.06177 8.28944 8.06177 7.98308V6.85543L8.15954 5.8386L7.22092 6.8424L4.82222 9.24109C4.73097 9.33235 4.60712 9.39101 4.45069 9.39101C4.16389 9.39101 3.97486 9.20198 3.97486 8.90867C3.97486 8.7783 4.03352 8.64794 4.12478 8.55668L6.52999 6.15147L7.54683 5.20633L6.58214 5.31062H5.39582C5.08295 5.31062 4.88089 5.12159 4.88089 4.83479C4.88089 4.54799 5.07643 4.35896 5.38279 4.35896H8.47241C8.80484 4.35896 9.01994 4.50888 9.01994 4.89346V7.97005C9.01994 8.26988 8.8244 8.4915 8.5376 8.4915Z" fill="currentColor"/>
</g>
</svg>
